<?xml version="1.0" encoding="UTF-8"?>
<svg version="1.1" xmlns="http://www.w3.org/2000/svg" width="457" height="157">
<path d="M0 0 C150.81 0 301.62 0 457 0 C457 51.81 457 103.62 457 157 C306.19 157 155.38 157 0 157 C0 105.19 0 53.38 0 0 Z " fill="#131618" transform="translate(0,0)"/>
<path d="M0 0 C1.10216354 -0.00428513 2.20432709 -0.00857025 3.33988953 -0.01298523 C5.66725987 -0.01871688 7.99464813 -0.01923739 10.32202148 -0.01489258 C13.86408429 -0.0117389 17.40530634 -0.03518561 20.94726562 -0.06054688 C23.2148427 -0.06282075 25.48242201 -0.06352295 27.75 -0.0625 C29.32543327 -0.07631462 29.32543327 -0.07631462 30.93269348 -0.09040833 C38.99134211 -0.04026346 47.08230161 0.93057841 53.23780823 6.68469238 C59.2346587 13.93653838 60.31561068 21.38772731 60.203125 30.51953125 C60.20553696 31.65805542 60.20794891 32.79657959 60.21043396 33.96960449 C60.20945982 36.36307275 60.19617073 38.75656475 60.17114258 41.14990234 C60.13681261 44.79082624 60.1505157 48.42932136 60.16992188 52.0703125 C60.16302275 54.4075623 60.15334978 56.7448059 60.140625 59.08203125 C60.1480648 60.69652161 60.1480648 60.69652161 60.15565491 62.34362793 C60.03947109 69.8860816 59.02601795 77.32283393 53.91236877 83.21594238 C46.63139234 90.19520332 38.15179601 90.76775165 28.55078125 90.76953125 C27.40942719 90.77714478 26.26807312 90.7847583 25.09213257 90.79260254 C22.68676939 90.80336911 20.2813596 90.80627073 17.87597656 90.80175781 C14.2172973 90.80078605 10.56072054 90.84244039 6.90234375 90.88671875 C4.55599392 90.89192694 2.20963686 90.89461392 -0.13671875 90.89453125 C-1.21931976 90.91092651 -2.30192078 90.92732178 -3.41732788 90.94421387 C-11.32669052 90.87307003 -17.9007821 89.14284712 -24.04159546 83.92883301 C-30.59489117 76.78616588 -30.89283668 68.41964474 -30.89453125 59.27734375 C-30.90214478 58.13598969 -30.9097583 56.99463562 -30.91760254 55.81869507 C-30.92836911 53.41333189 -30.93127073 51.0079221 -30.92675781 48.60253906 C-30.92578605 44.9438598 -30.96744039 41.28728304 -31.01171875 37.62890625 C-31.01692694 35.28255642 -31.01961392 32.93619936 -31.01953125 30.58984375 C-31.03592651 29.50724274 -31.05232178 28.42464172 -31.06921387 27.30923462 C-31.00361078 20.01586145 -29.63189601 14.35356676 -25.42578125 8.30078125 C-17.78212651 0.94097361 -10.27530809 -0.00886533 0 0 Z " fill="#E2E6EA" transform="translate(63.42578125,31.69921875)"/>
<path d="M0 0 C4.00218353 1.91686584 7.43943001 3.65294595 10.44140625 6.9765625 C13.99179376 5.26888171 17.23539004 3.23458066 20.5390625 1.09765625 C24.52928434 -1.25387079 27.89282387 -1.47083905 32.44140625 -1.0234375 C37.45608404 1.062893 41.36504444 4.03899436 43.83203125 8.9296875 C45.00902146 12.88316742 44.73661751 16.901007 44.44140625 20.9765625 C43.84972656 20.56664063 43.25804688 20.15671875 42.6484375 19.734375 C41.85824219 19.19554688 41.06804687 18.65671875 40.25390625 18.1015625 C39.47660156 17.56789063 38.69929688 17.03421875 37.8984375 16.484375 C30.39339713 11.87873814 21.99995139 12.09969753 13.44140625 12.9765625 C8.0189032 14.40151003 4.55243492 17.31001949 1.44140625 21.9765625 C2.45203125 21.5021875 3.46265625 21.0278125 4.50390625 20.5390625 C9.1665093 18.54350623 13.51761777 17.33529967 18.44140625 18.9765625 C18.44140625 20.9765625 18.44140625 20.9765625 16.94140625 22.6015625 C16.44640625 23.0553125 15.95140625 23.5090625 15.44140625 23.9765625 C16.03566406 23.74839844 16.62992188 23.52023438 17.2421875 23.28515625 C24.45973593 20.78202515 31.47515399 19.838315 38.69140625 22.9453125 C40.62890625 24.0390625 40.62890625 24.0390625 43.44140625 25.9765625 C40.47593981 37.5418816 32.15302629 45.14872002 22.37890625 51.2890625 C14.50837577 55.69608184 14.50837577 55.69608184 10.44140625 55.9765625 C-0.65293337 51.78788325 -0.65293337 51.78788325 -2.55859375 47.9765625 C-1.70136719 47.87859375 -0.84414062 47.780625 0.0390625 47.6796875 C6.71745375 46.8063015 12.02449713 46.09812379 17.44140625 41.9765625 C19.37835208 39.39452529 19.37835208 39.39452529 20.44140625 36.9765625 C19.95671875 37.2653125 19.47203125 37.5540625 18.97265625 37.8515625 C13.82038978 40.70512547 10.31176562 41.39587388 4.44140625 40.9765625 C4.11140625 40.3165625 3.78140625 39.6565625 3.44140625 38.9765625 C4.43140625 38.4815625 4.43140625 38.4815625 5.44140625 37.9765625 C5.77140625 36.9865625 6.10140625 35.9965625 6.44140625 34.9765625 C5.38953125 35.4715625 4.33765625 35.9665625 3.25390625 36.4765625 C-2.53550283 38.59589975 -8.50229505 39.24902951 -14.55859375 37.9765625 C-17.21448306 35.68585797 -18.35100251 33.22515303 -19.55859375 29.9765625 C-19.91695312 29.203125 -20.2753125 28.4296875 -20.64453125 27.6328125 C-22.6860326 21.70024448 -22.72057623 14.36394892 -20.68359375 8.42578125 C-16.2850609 0.74281762 -8.71153099 -3.4846124 0 0 Z " fill="#4AC685" transform="translate(66.55859375,50.0234375)"/>
<path d="M0 0 C1.2478125 -0.00515625 2.495625 -0.0103125 3.78125 -0.015625 C7.69704225 0.26407445 10.7852333 1.04365824 14.5 2.25 C13.93434519 9.92846322 13.3123221 17.59343208 12.5 25.25 C8.54 25.745 8.54 25.745 4.5 26.25 C4.43941406 25.57453125 4.37882812 24.8990625 4.31640625 24.203125 C4.23261719 23.31109375 4.14882812 22.4190625 4.0625 21.5 C3.98128906 20.61828125 3.90007812 19.7365625 3.81640625 18.828125 C3.53761535 16.55649548 3.11209423 14.45148177 2.5 12.25 C-2.47456653 11.34553336 -6.21369178 10.68870187 -10.9375 12.75 C-16.74575323 18.41658852 -17.60983693 25.79463414 -17.74121094 33.53222656 C-17.78036359 43.96858353 -17.39994045 53.84069757 -10.5 62.25 C-6.98175489 64.59549674 -5.64224306 64.82991403 -1.5 64.25 C3.91764428 60.47024818 5.03793833 55.37164032 6.5 49.25 C9.14 48.92 11.78 48.59 14.5 48.25 C14.41918418 51.68846747 14.30633848 55.12515312 14.1875 58.5625 C14.16494141 59.53896484 14.14238281 60.51542969 14.11914062 61.52148438 C14.08369141 62.45927734 14.04824219 63.39707031 14.01171875 64.36328125 C13.98553467 65.22735596 13.95935059 66.09143066 13.93237305 66.98168945 C13.4160226 69.6905613 12.64087574 70.56640824 10.5 72.25 C2.4704397 76.01676284 -7.63250054 76.98839266 -16 74 C-24.66790294 67.93246794 -28.94476075 60.68745395 -30.875 50.1875 C-32.60390456 36.46320603 -31.57706873 21.98574096 -23.5 10.25 C-16.62160219 2.55705509 -10.38849234 -0.04292765 0 0 Z " fill="#FBFBFB" transform="translate(166.5,38.75)"/>
<path d="M0 0 C0 2.64 0 5.28 0 8 C0.43570312 7.50628906 0.87140625 7.01257813 1.3203125 6.50390625 C4.11006811 3.50280552 6.17077977 1.30461151 10.0625 -0.125 C13.77878877 0.03313995 15.88217033 0.99073199 19 3 C24.98159663 9.60038248 23.13149948 18.7428902 22.74609375 27.03515625 C22.59366485 30.08571386 22.43351757 33.13569433 22.26757812 36.18554688 C22.21923828 37.16716797 22.17089844 38.14878906 22.12109375 39.16015625 C22.0739624 40.04324463 22.02683105 40.92633301 21.97827148 41.83618164 C21.84245252 44.05007995 21.84245252 44.05007995 23 46 C25.02463255 46.65213292 25.02463255 46.65213292 27 47 C26.67 49.31 26.34 51.62 26 54 C20.06 54.33 14.12 54.66 8 55 C8 47.86772487 8 47.86772487 11 44 C11.44464609 40.95538842 11.44464609 40.95538842 11.36328125 37.58984375 C11.36263672 36.35298828 11.36199219 35.11613281 11.36132812 33.84179688 C11.34521484 32.55337891 11.32910156 31.26496094 11.3125 29.9375 C11.31572266 28.64521484 11.31894531 27.35292969 11.32226562 26.02148438 C11.57403732 19.12502873 11.57403732 19.12502873 9 13 C3.98464948 13.32960216 3.98464948 13.32960216 0 16 C-0.27904629 19.11038944 -0.27904629 19.11038944 -0.1953125 22.7578125 C-0.19106766 23.75238968 -0.19106766 23.75238968 -0.18673706 24.76705933 C-0.17553435 26.88655583 -0.15043051 29.00563104 -0.125 31.125 C-0.11497028 32.56119182 -0.10584441 33.99739025 -0.09765625 35.43359375 C-0.075595 38.95586628 -0.04106494 42.47789203 0 46 C1.485 46.495 1.485 46.495 3 47 C3 49.31 3 51.62 3 54 C-3.27 54 -9.54 54 -16 54 C-16 52.02 -16 50.04 -16 48 C-15.34878174 47.36271973 -14.69756348 46.72543945 -14.02661133 46.06884766 C-11.68363187 44.08466584 -11.68363187 44.08466584 -11.5300293 40.73193359 C-11.54461182 39.46687988 -11.55919434 38.20182617 -11.57421875 36.8984375 C-11.57750687 36.22076324 -11.58079498 35.54308899 -11.58418274 34.84487915 C-11.59457656 33.41764671 -11.61448106 31.99045565 -11.64331055 30.56347656 C-11.68749161 28.37541569 -11.70476432 26.1884523 -11.71679688 24 C-11.40271008 17.29698588 -11.40271008 17.29698588 -13 11 C-15.02463255 10.34786708 -15.02463255 10.34786708 -17 10 C-16.67 8.02 -16.34 6.04 -16 4 C-13.89748139 3.32815382 -11.79292237 2.66269032 -9.6875 2 C-8.51574219 1.62875 -7.34398437 1.2575 -6.13671875 0.875 C-3 0 -3 0 0 0 Z " fill="#FBFBFB" transform="translate(263,59)"/>
<path d="M0 0 C5.07057633 2.78384583 8.1657459 5.49723769 10 11 C10.27082219 16.37661706 10.26375331 21.78963761 9.5 27.125 C8.28974721 35.23564375 8.28974721 35.23564375 10 43 C12.97 42.505 12.97 42.505 16 42 C15.58221009 47.7097955 13.42453429 50.60957142 10 55 C6.6875 54.8125 6.6875 54.8125 3 54 C1.125 51.5625 1.125 51.5625 0 49 C-0.33 48.34 -0.66 47.68 -1 47 C-1.36351562 47.49371094 -1.72703125 47.98742187 -2.1015625 48.49609375 C-4.55933151 51.62817374 -6.27301667 53.69709028 -10 55.25 C-14.33064285 54.8891131 -16.0425434 53.09188645 -19 50 C-21.72540721 44.51197866 -21.74986083 38.99888665 -21 33 C-17.83909407 27.38061167 -11.83562468 26.39978609 -5.9609375 24.69921875 C-3 24 -3 24 0 24 C-0.28359887 22.5608866 -0.57721399 21.12374482 -0.875 19.6875 C-1.03742188 18.88699219 -1.19984375 18.08648437 -1.3671875 17.26171875 C-1.94478999 14.74698882 -1.94478999 14.74698882 -4 12 C-9.99882415 11.17663198 -13.14120551 12.82690972 -18 16 C-19.44263036 13.11473928 -19.40836482 11.19085064 -19 8 C-16.6640625 5.91796875 -16.6640625 5.91796875 -13.625 4.1875 C-12.62726563 3.60355469 -11.62953125 3.01960938 -10.6015625 2.41796875 C-6.66211939 0.2707948 -4.56270998 -0.43872211 0 0 Z " fill="#F9F9F9" transform="translate(406,59)"/>
<path d="M0 0 C3.92882007 3.47198052 5.65575738 7.30923667 6.6875 12.375 C6.77803693 14.06058459 6.81759203 15.74949336 6.8125 17.4375 C6.81636719 18.72333984 6.81636719 18.72333984 6.8203125 20.03515625 C6.6875 22.375 6.6875 22.375 5.6875 25.375 C-1.9025 25.375 -9.4925 25.375 -17.3125 25.375 C-15.51999699 34.69014325 -15.51999699 34.69014325 -10.3125 41.375 C-4.80564694 42.00693396 -0.52729632 41.11326544 4.6875 39.375 C5.625 42 5.625 42 5.6875 45.375 C2.42892657 49.38700081 -2.28569067 52.90171709 -7.4609375 53.7109375 C-12.94038267 53.80706812 -16.01024526 53.07694013 -20.3125 49.375 C-26.44150564 43.24599436 -27.6262146 35.89775849 -27.75 27.5 C-27.67720041 18.01840457 -25.55987953 9.71508066 -18.875 2.74609375 C-13.0979198 -2.32329412 -6.8148435 -3.34313077 0 0 Z " fill="#FAFAFA" transform="translate(325.3125,60.625)"/>
<path d="M0 0 C6.93 0 13.86 0 21 0 C21 1.65 21 3.3 21 5 C19.02 5.99 19.02 5.99 17 7 C17.61855631 8.6274637 18.24507305 10.25190356 18.875 11.875 C19.22304688 12.77992187 19.57109375 13.68484375 19.9296875 14.6171875 C20.88530895 17.12217007 20.88530895 17.12217007 23 19 C23.6509259 17.75264433 24.29551669 16.50198168 24.9375 15.25 C25.29714844 14.55390625 25.65679687 13.8578125 26.02734375 13.140625 C26.95558182 11.09775567 27.53166578 9.18884624 28 7 C27.34 7 26.68 7 26 7 C26 4.69 26 2.38 26 0 C30.95 0 35.9 0 41 0 C39.88721805 7.78947368 39.88721805 7.78947368 37.375 10.1875 C34.4973904 13.28268496 32.22676816 16.52960557 30 20.125 C29.38125 21.11757812 28.7625 22.11015625 28.125 23.1328125 C26.7227348 25.89854444 26.7227348 25.89854444 27.60546875 28.48828125 C28.06566406 29.31714844 28.52585937 30.14601563 29 31 C29.51175781 31.98097656 30.02351563 32.96195313 30.55078125 33.97265625 C31.13214844 34.99230469 31.71351563 36.01195312 32.3125 37.0625 C33.17294922 38.59583984 33.17294922 38.59583984 34.05078125 40.16015625 C35.85556654 43.12597053 35.85556654 43.12597053 38.73046875 44.99609375 C39.47941406 45.65738281 40.22835937 46.31867188 41 47 C41 48.98 41 50.96 41 53 C34.07 53 27.14 53 20 53 C20.33 51.02 20.66 49.04 21 47 C21.99 47 22.98 47 24 47 C23.37935063 45.39414507 22.7533082 43.79037383 22.125 42.1875 C21.77695312 41.29417969 21.42890625 40.40085938 21.0703125 39.48046875 C20.01167845 36.82288409 20.01167845 36.82288409 18 34 C17.18162558 35.41328129 16.37053781 36.83078346 15.5625 38.25 C15.11003906 39.03890625 14.65757812 39.8278125 14.19140625 40.640625 C13.10688398 42.78833468 12.46851284 44.65205061 12 47 C12.99 47 13.98 47 15 47 C15 48.98 15 50.96 15 53 C10.05 53 5.1 53 0 53 C0 46.29437229 0 46.29437229 3.125 42.75 C5.78066074 39.53610854 8.24938742 36.3257802 10.5 32.8125 C11.25796875 31.64654297 11.25796875 31.64654297 12.03125 30.45703125 C13.32823685 27.16749606 12.94391028 25.38949602 12 22 C10.58268664 18.84964116 10.58268664 18.84964116 8.75 15.8125 C8.16734375 14.78769531 7.5846875 13.76289062 6.984375 12.70703125 C5.19216544 9.84412349 5.19216544 9.84412349 2.265625 8.57421875 C1.51796875 8.05472656 0.7703125 7.53523438 0 7 C0 4.69 0 2.38 0 0 Z " fill="#F8F8F9" transform="translate(338,60)"/>
<path d="M0 0 C3.07697765 2.91250669 5.50914217 5.97047822 7.9375 9.4375 C11.13308565 13.88532994 14.26924895 17.89491029 18.63671875 21.26171875 C20.14964884 22.43609106 21.58135233 23.71331956 23 25 C23 26.32 23 27.64 23 29 C23.99 29 24.98 29 26 29 C26 29.99 26 30.98 26 32 C27.32 32 28.64 32 30 32 C30.495 30.515 30.495 30.515 31 29 C31.76570313 29.38091797 31.76570313 29.38091797 32.546875 29.76953125 C38.85254939 32.75466434 45.2041343 34.48214167 52 36 C49.29839258 43.11800757 39.80361377 48.30948033 33.3125 51.75 C29.0855791 53.43464239 26.21319834 52.79362492 22.0859375 51.0703125 C19.17174689 49.57501619 16.59981979 47.99986138 14 46 C14 45.67 14 45.34 14 45 C14.85722656 44.90203125 15.71445313 44.8040625 16.59765625 44.703125 C23.2760475 43.829739 28.58309088 43.12156129 34 39 C35.93694583 36.41796279 35.93694583 36.41796279 37 34 C36.5153125 34.28875 36.030625 34.5775 35.53125 34.875 C30.37898353 37.72856297 26.87035937 38.41931138 21 38 C20.67 37.34 20.34 36.68 20 36 C20.99 35.505 20.99 35.505 22 35 C22.33 34.01 22.66 33.02 23 32 C21.948125 32.495 20.89625 32.99 19.8125 33.5 C14.02309092 35.61933725 8.0562987 36.27246701 2 35 C-0.65588931 32.70929547 -1.79240876 30.24859053 -3 27 C-3.35835937 26.2265625 -3.71671875 25.453125 -4.0859375 24.65625 C-6.13540072 18.70054491 -6.31117498 11.14773365 -3.87890625 5.30859375 C-2.68439756 3.41700633 -1.46680248 1.68682285 0 0 Z " fill="#229AD0" transform="translate(50,53)"/>
<path d="M0 0 C-0.144375 1.30839844 -0.28875 2.61679687 -0.4375 3.96484375 C-2.75192377 27.58351765 -2.18928615 51.29716723 -2 75 C-0.68 75.33 0.64 75.66 2 76 C2 78.31 2 80.62 2 83 C-7.405 83.495 -7.405 83.495 -17 84 C-17 81.69 -17 79.38 -17 77 C-15.515 76.505 -15.515 76.505 -14 76 C-14 54.22 -14 32.44 -14 10 C-15.32 9.67 -16.64 9.34 -18 9 C-18 6.69 -18 4.38 -18 2 C-15.94077867 1.46635113 -13.87743893 0.94857811 -11.8125 0.4375 C-10.08966797 0.00244141 -10.08966797 0.00244141 -8.33203125 -0.44140625 C-5.11519907 -0.98068761 -3.10327217 -0.88247476 0 0 Z " fill="#F9F9F9" transform="translate(208,30)"/>
<path d="M0 0 C-0.16371094 1.27617188 -0.32742187 2.55234375 -0.49609375 3.8671875 C-1.30272291 11.93347908 -1.10584492 20.02849697 -1.0625 28.125 C-1.05747437 29.76562363 -1.05291335 31.40624876 -1.04882812 33.046875 C-1.03790805 37.03128742 -1.02070218 41.0156269 -1 45 C0.32 45.33 1.64 45.66 3 46 C3.04254356 47.99954746 3.04080783 50.00041636 3 52 C1.45049732 53.54950268 -0.09990594 53.21655193 -2.25390625 53.31640625 C-3.10791016 53.35830078 -3.96191406 53.40019531 -4.84179688 53.44335938 C-5.73962891 53.48267578 -6.63746094 53.52199219 -7.5625 53.5625 C-8.46419922 53.60568359 -9.36589844 53.64886719 -10.29492188 53.69335938 C-12.52978485 53.79978142 -14.76476308 53.90179988 -17 54 C-17.25 50.6875 -17.25 50.6875 -17 47 C-16.34290039 46.58387451 -15.68580078 46.16774902 -15.00878906 45.73901367 C-12.63066777 44.06793153 -12.63066777 44.06793153 -12.54589844 40.63012695 C-12.54653007 39.24934974 -12.56903503 37.86846921 -12.609375 36.48828125 C-12.61786469 35.39594429 -12.61786469 35.39594429 -12.62652588 34.28153992 C-12.64889971 31.95785502 -12.69909331 29.63571793 -12.75 27.3125 C-12.77006391 25.73635041 -12.78831488 24.16017663 -12.8046875 22.58398438 C-12.84876717 18.72206076 -12.91779775 14.8612927 -13 11 C-14.32 10.34 -15.64 9.68 -17 9 C-17 7.02 -17 5.04 -17 3 C-4.31707317 -1.43902439 -4.31707317 -1.43902439 0 0 Z " fill="#FBFBFB" transform="translate(235,60)"/>
<path d="M0 0 C0.64066406 0.19335938 1.28132813 0.38671875 1.94140625 0.5859375 C6.95110985 2.0940748 11.96539857 3.57717786 17 5 C14.29839258 12.11800757 4.80361377 17.30948033 -1.6875 20.75 C-5.9144209 22.43464239 -8.78680166 21.79362492 -12.9140625 20.0703125 C-15.82825311 18.57501619 -18.40018021 16.99986138 -21 15 C-21 14.67 -21 14.34 -21 14 C-20.14277344 13.90203125 -19.28554687 13.8040625 -18.40234375 13.703125 C-11.7239525 12.829739 -6.41690912 12.12156129 -1 8 C0.93694583 5.41796279 0.93694583 5.41796279 2 3 C1.34 3 0.68 3 0 3 C0 2.01 0 1.02 0 0 Z " fill="#2BA0D2" transform="translate(85,84)"/>
<path d="M0 0 C3.10466757 1.27370977 4.04874282 1.91387294 5.4375 5 C5.55027613 8.89782494 5.52917838 12.59551979 3.07421875 15.75390625 C0.53261608 17.68892117 -1.48059939 17.39343412 -4.5625 17 C-7.38624733 12.764379 -7.22070812 8.97312803 -6.5625 4 C-4.56840967 0.82422652 -3.76179519 0 0 0 Z " fill="#F9F9F9" transform="translate(228.5625,32)"/>
<path d="M0 0 C2.67927341 4.01891012 2.15601248 6.24161923 2 11 C-4.435 11.495 -4.435 11.495 -11 12 C-9.70361205 5.51806023 -8.24306821 -1.51845993 0 0 Z " fill="#1B1E20" transform="translate(319,68)"/>
<path d="M0 0 C0.10815225 1.76949095 0.18566083 3.54087487 0.25 5.3125 C0.29640625 6.29863281 0.3428125 7.28476563 0.390625 8.30078125 C0 11 0 11 -1.84765625 12.87109375 C-4 14 -4 14 -6.6875 13.75 C-9 13 -9 13 -10 12 C-10.14115161 9.32941149 -10.04247107 6.67567762 -10 4 C-8.52184338 3.3310968 -7.04244528 2.66493641 -5.5625 2 C-4.73878906 1.62875 -3.91507812 1.2575 -3.06640625 0.875 C-1 0 -1 0 0 0 Z " fill="#181B1D" transform="translate(405,89)"/>
<path d="M0 0 C1.32 0 2.64 0 4 0 C4 0.99 4 1.98 4 3 C4.99 3 5.98 3 7 3 C7 3.99 7 4.98 7 6 C6.01 6 5.02 6 4 6 C4 6.99 4 7.98 4 9 C2.68 9 1.36 9 0 9 C0 8.01 0 7.02 0 6 C-0.99 6 -1.98 6 -3 6 C-3 5.01 -3 4.02 -3 3 C-2.01 3 -1.02 3 0 3 C0 2.01 0 1.02 0 0 Z " fill="#E0E6EB" transform="translate(76,76)"/>
</svg>
